<svg width="14" height="14" viewBox="0 0 14 14" fill="none" xmlns="http://www.w3.org/2000/svg">
<path d="M12.884 0.659118C12.0962 -0.128723 10.8189 -0.128723 10.0311 0.659118L2.03324 8.65695C1.97843 8.71176 1.93886 8.77971 1.91819 8.8543L0.866456 12.6513C0.823203 12.807 0.867157 12.9737 0.981331 13.088C1.09568 13.2022 1.26239 13.2462 1.41807 13.2031L5.21508 12.1512C5.28968 12.1305 5.35762 12.0909 5.41243 12.0361L13.4101 4.03813C14.1967 3.24976 14.1967 1.97353 13.4101 1.18516L12.884 0.659118ZM3.01003 8.94834L9.55564 2.40256L11.6666 4.51356L5.12087 11.0593L3.01003 8.94834ZM2.58836 9.79449L4.27489 11.4812L1.94201 12.1275L2.58836 9.79449ZM12.7762 3.40421L12.3007 3.87965L10.1896 1.76847L10.6652 1.29303C11.1028 0.855421 11.8123 0.855421 12.25 1.29303L12.7762 1.81908C13.2131 2.25721 13.2131 2.96625 12.7762 3.40421Z" fill="black"/>
</svg>
